<svg width="266" height="95" viewBox="0 0 266 95" fill="none" xmlns="http://www.w3.org/2000/svg">
<path d="M26.95 2.58278C27.2476 2.54893 27.5441 2.53965 27.844 2.54496C30.4614 2.59095 32.8114 3.51498 34.6363 5.42498C35.7422 6.58186 36.5428 7.97469 36.8679 9.54556C37.5466 12.8315 37.1854 18.8793 37.1854 22.4374C37.1854 25.5176 37.2097 28.6027 37.2227 31.6882C37.2495 38.0217 42.6455 44.5343 48.8184 43.1169C49.8537 42.8794 50.6695 42.3536 51.2292 41.4415C51.7065 40.6642 51.9178 39.7678 52.0036 38.8685C52.2032 36.7733 52.2125 16.6778 51.8355 15.2765C51.6727 14.6726 51.2969 14.1846 50.7541 13.8723C50.5935 13.7817 50.4254 13.7076 50.2499 13.6501C50.0745 13.5926 49.8951 13.5527 49.7119 13.5304C49.5286 13.5082 49.345 13.504 49.161 13.5179C48.977 13.5318 48.796 13.5635 48.6182 13.613C47.7884 13.8457 47.2077 14.4295 46.9422 15.2461C46.487 16.6456 46.7374 18.5125 46.7327 19.9914C46.7263 22.0181 47.0543 35.5608 46.396 36.5568C46.145 36.9368 45.3257 37.3987 44.8647 37.4393C44.4883 37.4725 44.1725 37.3586 43.9035 37.0944C43.4297 36.629 43.2482 35.7561 43.1717 35.1245C42.9015 32.9041 43.1361 30.4094 43.1373 28.1554C43.1396 24.3773 43.0217 20.5813 43.1128 16.8053C43.16 14.8367 43.5732 13.0547 45.0613 11.6509C45.2135 11.5087 45.3722 11.3744 45.5375 11.2479C45.7029 11.1215 45.8741 11.0035 46.0511 10.894C46.2285 10.7846 46.4106 10.6841 46.5973 10.5927C46.7844 10.5013 46.9757 10.4194 47.171 10.3469C47.3659 10.2745 47.5641 10.2118 47.7656 10.159C47.9672 10.1062 48.1706 10.0635 48.3761 10.0309C48.5819 9.99832 48.7887 9.97597 48.9964 9.96387C49.2042 9.95177 49.4121 9.94998 49.6203 9.9585C49.828 9.9664 50.035 9.98449 50.2412 10.0128C50.447 10.0411 50.651 10.0795 50.8533 10.1279C51.0557 10.1763 51.255 10.2346 51.4515 10.3026C51.648 10.3707 51.8408 10.4483 52.0298 10.5354C52.2185 10.6225 52.4026 10.7187 52.5819 10.8239C52.7613 10.9291 52.935 11.0429 53.103 11.1653C53.2711 11.2877 53.433 11.418 53.5886 11.5563C53.7438 11.6947 53.8918 11.8403 54.0327 11.9932C54.6069 12.6239 55.0855 13.3281 55.2722 14.1711C56.0023 17.4719 55.6317 23.9326 55.6299 27.6469C55.6276 31.5027 55.7852 35.4258 55.5809 39.2712C55.463 41.4946 54.7003 43.3451 53.0173 44.842C50.2353 47.3152 46.3423 46.9277 42.8869 46.9528C42.0617 46.9589 41.2334 46.974 40.4049 46.981C38.6468 46.9957 37.2247 48.4399 37.2256 50.1981C37.2256 51.0799 37.1848 52.24 36.4997 52.8878C36.1933 53.1767 35.7626 53.2951 35.3494 53.2841C34.931 53.2724 34.5178 53.1253 34.2284 52.8149C32.0288 50.4558 30.8446 46.7429 27.6208 46.844C25.8223 46.9003 24.1637 47.165 23.3143 47.9822C22.7541 48.5215 22.4722 49.1617 22.3158 49.9145C21.975 51.5561 22.1331 53.4008 22.1384 55.0762C22.1556 60.2597 26.5403 63.6631 31.5691 64.9202C32.583 65.1737 33.5018 65.5567 34.2476 66.128C35.8811 67.3786 36.8498 69.2735 37.1002 71.2974C37.4912 74.4539 37.1813 78.1322 37.1708 81.3448C37.1667 82.6859 37.3499 84.1845 37.1953 85.5057C37.1328 86.0368 36.9665 86.604 36.624 87.0242C36.3269 87.3895 35.9167 87.6253 35.4422 87.6545C34.9876 87.6825 34.5523 87.4981 34.2249 87.1882C33.9016 86.8824 33.7802 86.5212 33.7032 86.0899C33.4353 84.5965 33.5619 82.9683 33.5689 81.4534C33.5818 78.6563 33.6448 75.851 33.6045 73.0545C33.5841 71.6306 33.3647 70.1676 32.2746 69.137C30.5968 67.5508 26.3816 68.1256 24.1722 68.1536C23.0641 68.2161 22.1462 69.0591 22.1717 70.1686C22.2818 74.9638 22.3562 85.5031 21.947 86.5941C21.9081 86.6975 21.857 86.7896 21.7964 86.8723C21.1819 87.7096 19.7363 87.7013 18.9836 86.9857C18.667 86.6847 18.5227 84.2776 18.4685 81.2664C18.3385 74.051 12.3813 69.8549 5.50646 67.6605C4.37281 67.2987 3.36782 66.6404 2.51096 65.8199C0.53887 63.932 0.175707 61.7734 0.119159 59.1443C0.0239771 54.7162 0.099435 50.2693 0.0983262 45.8399C0.0975092 42.5415 -0.287652 38.6456 0.472226 35.4256C0.686107 34.5193 1.16739 33.7637 1.81492 33.1012C1.95845 32.9536 2.10887 32.8133 2.2662 32.6805C2.42353 32.5476 2.58701 32.4228 2.75664 32.306C2.92623 32.1893 3.10115 32.0811 3.28139 31.9816C3.46168 31.882 3.6464 31.7916 3.83556 31.7102C4.02472 31.6288 4.21742 31.5569 4.41365 31.4946C4.60989 31.4322 4.80872 31.3796 5.01013 31.3367C5.21154 31.2939 5.41457 31.2611 5.61921 31.2382C5.82389 31.2154 6.02917 31.2026 6.23506 31.2C6.44655 31.195 6.65775 31.2005 6.86865 31.2166C7.0796 31.2326 7.2892 31.2592 7.49746 31.2963C7.70576 31.3333 7.91166 31.3806 8.11518 31.4383C8.31873 31.4959 8.51889 31.5635 8.71568 31.6412C8.91242 31.7188 9.10483 31.8061 9.29289 31.903C9.48096 31.9998 9.66372 32.1059 9.84116 32.221C10.0186 32.3362 10.1899 32.4599 10.3549 32.5922C10.52 32.7245 10.6781 32.8646 10.8292 33.0127C12.7364 34.9114 12.6668 37.4841 12.6723 40.0001L12.6719 51.2555C12.6706 53.1101 12.8541 55.1509 12.5737 56.9758C12.511 57.3837 12.3831 57.7601 12.0782 58.0519C11.7056 58.4079 11.1767 58.5567 10.6685 58.5333C9.91831 58.4983 9.47596 57.9387 9.2598 57.2658C8.76154 55.7147 9.04295 53.5694 9.06267 51.9506C9.08368 48.6323 9.08496 45.3139 9.06652 41.9953C9.0643 40.4447 9.23255 38.7308 9.01488 37.2019C8.92792 36.591 8.72711 35.9942 8.30151 35.5342C7.83383 35.0286 7.12175 34.7394 6.43803 34.7235C6.26214 34.72 6.08765 34.7341 5.91456 34.7658C5.74151 34.7975 5.57336 34.8461 5.41012 34.9118C5.24687 34.9774 5.09181 35.0586 4.94494 35.1555C4.79812 35.2525 4.66243 35.3631 4.5379 35.4874C3.46137 36.5728 3.68692 38.7226 3.68214 40.1588L3.67426 54.0118C3.6759 56.2638 3.41498 58.9494 3.8515 61.1536C4.02126 62.0109 4.41161 62.7118 5.034 63.3233C5.63363 63.9122 6.39292 64.2285 7.20642 64.4035C8.73917 64.7339 11.6575 64.7172 14.3347 64.6584C16.608 64.6084 18.5282 62.5924 18.5272 60.3185L18.5196 52.5458C18.5097 49.9349 18.8032 47.3747 20.7448 45.4396C21.7916 44.3961 23.2474 43.8297 24.8618 43.5339C29.5151 42.6814 33.5717 39.2754 33.5736 34.5447L33.5824 18.8487C33.5835 16.1878 33.8887 13.0625 33.3974 10.4543C33.1394 9.08314 32.1917 7.81076 31.0432 7.04411C30.8829 6.93783 30.7176 6.83979 30.5472 6.74999C30.3771 6.6602 30.203 6.5791 30.0249 6.5067C29.8467 6.43426 29.6652 6.37086 29.4804 6.31651C29.296 6.2622 29.1092 6.21718 28.9201 6.18147C28.7311 6.14575 28.5406 6.11953 28.3488 6.1028C28.157 6.08607 27.965 6.07892 27.7728 6.08133C27.5803 6.08378 27.3884 6.09576 27.1974 6.11728C27.0064 6.13883 26.8167 6.16984 26.6284 6.2103C25.47 6.45844 24.4138 7.0356 23.6376 7.93915C21.134 10.8542 23.1433 14.4397 21.4667 16.8669C21.2782 17.14 21.0518 17.3021 20.7238 17.3556C20.2225 17.4373 19.5514 16.9928 19.1773 16.706C18.8178 16.4308 18.6352 16.0167 18.5797 15.5744C18.1882 12.4253 18.5126 8.64738 20.5055 6.06925C22.1197 3.9808 24.3898 2.91402 26.95 2.58278Z" fill="#202020"/>
<path d="M18.8777 29.6102C19.2952 29.0551 20.0684 28.83 20.7518 28.9542C21.1329 29.0233 21.5595 29.2232 21.7731 29.5578C22.4518 30.6192 22.3123 37.2173 22.0246 38.6179C21.9763 38.8533 21.9135 39.0425 21.8289 39.2052C21.4904 39.8557 20.6627 40.1416 19.9465 39.9841C19.5829 39.9041 19.1079 39.6993 18.9124 39.3626C18.3276 38.3565 18.3399 31.3561 18.6416 30.1222C18.6927 29.9134 18.7734 29.749 18.8777 29.6102Z" fill="#202020"/>
<path d="M33.9422 58.6371C34.4003 57.9599 35.3373 57.6643 36.1075 57.9384C36.5499 58.096 36.8889 58.4788 37.0757 58.9013C37.3015 59.4119 37.2764 59.9669 37.0692 60.4781C36.8892 60.922 36.6793 61.1826 36.3681 61.3862C36.0115 61.6195 35.5736 61.7061 35.1551 61.626C34.6293 61.5262 34.1811 61.2397 33.8882 60.7886C33.6004 60.3462 33.552 59.7597 33.6751 59.2544C33.734 59.0119 33.8246 58.811 33.9422 58.6371Z" fill="#202020"/>
<path d="M19.7469 21.4575C19.8247 21.431 19.9039 21.4096 19.9844 21.3935C20.0649 21.3773 20.1461 21.3666 20.2278 21.3612C20.3098 21.3558 20.3917 21.3558 20.4734 21.3612C20.5555 21.3666 20.6368 21.3774 20.7174 21.3935C20.7979 21.4096 20.8769 21.431 20.9543 21.4575C21.0321 21.4841 21.1078 21.5157 21.1813 21.5522C21.2549 21.5888 21.3257 21.6301 21.3937 21.676C21.4618 21.7219 21.5266 21.7721 21.5881 21.8265C21.6495 21.881 21.7071 21.9393 21.7608 22.0014C21.8145 22.0634 21.8641 22.1288 21.9096 22.1974C21.9548 22.266 21.995 22.3373 22.0304 22.4113C22.0662 22.4852 22.097 22.5612 22.1226 22.6392C22.1483 22.7172 22.1687 22.7966 22.1839 22.8773C22.1995 22.958 22.2094 23.0394 22.2137 23.1214C22.2183 23.2034 22.2174 23.2853 22.2108 23.3672C22.2045 23.4491 22.1929 23.5302 22.1757 23.6106C22.1586 23.6909 22.1363 23.7698 22.1086 23.8472C22.0814 23.9245 22.0491 23.9998 22.0118 24.0729C21.974 24.146 21.9318 24.2163 21.8851 24.2839C21.8384 24.3515 21.7875 24.4156 21.7322 24.4764C21.677 24.5372 21.618 24.5942 21.5554 24.6472C21.4928 24.7002 21.4268 24.7489 21.3576 24.7933C21.2887 24.8376 21.2169 24.8772 21.1422 24.912C21.0679 24.9468 20.9917 24.9766 20.9135 25.0014C20.8555 25.0197 20.7969 25.0352 20.7378 25.0478C20.6783 25.0603 20.6184 25.07 20.5581 25.0768C20.4981 25.0835 20.4378 25.0873 20.3772 25.0881C20.3165 25.089 20.2558 25.0869 20.1951 25.0818C20.1348 25.0768 20.0749 25.0688 20.0153 25.0579C19.9554 25.047 19.8963 25.0332 19.8379 25.0166C19.78 24.9999 19.7228 24.9804 19.6664 24.9582C19.6096 24.9359 19.5543 24.911 19.5006 24.8834C19.4465 24.8557 19.394 24.8255 19.3431 24.7927C19.2921 24.76 19.2427 24.7248 19.1948 24.6873C19.1474 24.6497 19.1016 24.6099 19.0577 24.5678C19.0141 24.5258 18.9727 24.4818 18.9334 24.4357C18.8937 24.3896 18.8565 24.3417 18.8219 24.292C18.7873 24.2423 18.755 24.191 18.725 24.1382C18.6955 24.0854 18.6684 24.0312 18.6439 23.9757C18.6194 23.9202 18.5976 23.8636 18.5786 23.806C18.5595 23.7484 18.5434 23.69 18.5301 23.6308C18.5169 23.5717 18.5066 23.512 18.4992 23.4518C18.4918 23.3916 18.4873 23.3312 18.4858 23.2705C18.4842 23.2099 18.4856 23.1494 18.4899 23.0889C18.4941 23.0284 18.5013 22.9682 18.5115 22.9084C18.522 22.8487 18.5352 22.7895 18.5511 22.731C18.5671 22.6725 18.5858 22.6149 18.6072 22.5583C18.6289 22.5016 18.6533 22.4461 18.6801 22.3918C18.7073 22.3375 18.7369 22.2846 18.7688 22.2332C18.8011 22.1818 18.8357 22.1321 18.8727 22.0841C18.9096 22.036 18.9489 21.9899 18.9906 21.9456C19.0322 21.9014 19.0758 21.8594 19.1213 21.8194C19.1668 21.7794 19.2143 21.7417 19.2637 21.7064C19.3131 21.6711 19.3641 21.6382 19.4166 21.6079C19.4691 21.5775 19.523 21.5498 19.5782 21.5246C19.6331 21.4995 19.6893 21.4772 19.7469 21.4575Z" fill="#202020"/>
<path d="M83.8341 51.0437V12.9679H69.7625V2.75912H108.942V12.9679H94.8706V51.0437H83.8341Z" fill="#202020"/>
<path d="M125.376 51.8715C121.789 51.8715 118.616 51.1127 115.857 49.5952C113.098 48.0777 110.937 45.9624 109.373 43.2492C107.81 40.5361 107.028 37.3861 107.028 33.7992C107.028 30.2124 107.81 27.0624 109.373 24.3492C110.937 21.6361 113.098 19.5208 115.857 18.0033C118.662 16.4857 121.881 15.727 125.514 15.727C128.779 15.727 131.722 16.5087 134.343 18.0722C136.964 19.6357 139.034 21.981 140.551 25.108C142.115 28.189 142.897 32.0058 142.897 36.5584H116.961L118.133 35.2478C118.133 36.8113 118.455 38.1908 119.099 39.3865C119.743 40.5821 120.64 41.5018 121.789 42.1456C122.939 42.7434 124.226 43.0423 125.652 43.0423C127.353 43.0423 128.779 42.6744 129.929 41.9386C131.078 41.1569 131.883 40.1912 132.343 39.0416L141.931 42.2835C141.011 44.4908 139.701 46.3073 137.999 47.7328C136.344 49.1583 134.435 50.216 132.274 50.9058C130.113 51.5496 127.813 51.8715 125.376 51.8715ZM118.409 30.8332L117.306 29.3846H132.757L131.722 30.8332C131.722 29.0857 131.377 27.7292 130.687 26.7635C129.998 25.7518 129.147 25.016 128.135 24.5562C127.17 24.0963 126.181 23.8664 125.169 23.8664C124.157 23.8664 123.123 24.0963 122.065 24.5562C121.053 25.016 120.18 25.7518 119.444 26.7635C118.754 27.7292 118.409 29.0857 118.409 30.8332Z" fill="#202020"/>
<path d="M157.628 43.3872L151.282 35.9376L168.596 16.5547H181.219L157.628 43.3872ZM147.419 51.0437V2.75912H158.18V51.0437H147.419ZM169.63 51.0437L158.939 35.7996L165.975 28.419L182.115 51.0437H169.63Z" fill="#202020"/>
<path d="M186.773 51.0437V16.5547H197.534V51.0437H186.773ZM192.153 12.1401C190.544 12.1401 189.118 11.5423 187.877 10.3467C186.681 9.1051 186.083 7.67955 186.083 6.07007C186.083 4.36861 186.681 2.94306 187.877 1.79343C189.118 0.597809 190.544 0 192.153 0C193.809 0 195.234 0.597809 196.43 1.79343C197.626 2.94306 198.223 4.36861 198.223 6.07007C198.223 7.67955 197.626 9.1051 196.43 10.3467C195.234 11.5423 193.809 12.1401 192.153 12.1401Z" fill="#202020"/>
<path d="M205.215 51.0437V2.75912H215.976V51.0437H205.215Z" fill="#202020"/>
<path d="M243.485 51.0437L243.14 43.5941V33.8682C243.14 32.0288 242.98 30.4193 242.658 29.0398C242.382 27.6602 241.807 26.6025 240.933 25.8668C240.105 25.085 238.887 24.6941 237.277 24.6941C235.99 24.6941 234.863 24.993 233.897 25.5909C232.932 26.1887 232.104 26.9934 231.414 28.0051L221.964 24.9011C222.792 23.1996 223.873 21.6591 225.206 20.2795C226.586 18.9 228.264 17.7963 230.242 16.9686C232.219 16.1409 234.518 15.727 237.139 15.727C240.726 15.727 243.761 16.3938 246.244 17.7274C248.728 19.0609 250.59 20.9233 251.832 23.3146C253.073 25.7058 253.694 28.5339 253.694 31.7989L253.556 51.0437H243.485ZM234.035 51.8715C229.989 51.8715 226.839 50.9748 224.585 49.1813C222.332 47.3419 221.205 44.7208 221.205 41.3178C221.205 37.685 222.378 34.9719 224.723 33.1784C227.069 31.385 230.357 30.4883 234.587 30.4883H244.037V37.4551H238.588C236.335 37.4551 234.702 37.777 233.69 38.4208C232.679 39.0186 232.173 39.8923 232.173 41.0419C232.173 41.8697 232.541 42.5365 233.277 43.0423C234.058 43.5021 235.116 43.7321 236.45 43.7321C237.783 43.7321 238.933 43.4562 239.898 42.9043C240.91 42.3065 241.692 41.5248 242.244 40.5591C242.842 39.5934 243.14 38.5587 243.14 37.4551H245.9C245.9 42.0076 244.911 45.5485 242.934 48.0777C241.002 50.6069 238.036 51.8715 234.035 51.8715Z" fill="#202020"/>
<path d="M91.278 87.6883L98.7277 63.546H101.659L94.1751 87.6883H91.278ZM76.5857 87.6883L69.2051 63.546H72.1366L79.4483 87.6883H76.5857ZM76.8961 87.6883L84.0009 63.546H86.7945L79.6897 87.6883H76.8961ZM91.0366 87.6883L84.1043 63.546H86.8979L93.9337 87.6883H91.0366Z" fill="#202020"/>
<path d="M110.556 88.1022C108.877 88.1022 107.394 87.7228 106.106 86.9641C104.819 86.1823 103.807 85.1131 103.071 83.7566C102.359 82.4 102.002 80.8365 102.002 79.0661C102.002 77.2956 102.359 75.7321 103.071 74.3756C103.807 73.019 104.807 71.9613 106.072 71.2026C107.36 70.4208 108.831 70.0299 110.487 70.0299C112.096 70.0299 113.487 70.4323 114.66 71.2371C115.832 72.0188 116.741 73.1225 117.384 74.548C118.028 75.9736 118.35 77.652 118.35 79.5834H104.106L104.796 78.9971C104.796 80.3767 105.037 81.5608 105.52 82.5495C106.026 83.5382 106.727 84.2969 107.624 84.8257C108.521 85.3316 109.544 85.5845 110.693 85.5845C111.912 85.5845 112.935 85.2971 113.763 84.7223C114.614 84.1475 115.269 83.3887 115.729 82.446L118.109 83.6531C117.672 84.5498 117.085 85.3316 116.35 85.9984C115.637 86.6652 114.786 87.1825 113.797 87.5504C112.832 87.9183 111.751 88.1022 110.556 88.1022ZM104.968 77.8245L104.244 77.2726H116.143L115.418 77.859C115.418 76.7553 115.2 75.8011 114.763 74.9964C114.326 74.1916 113.74 73.5708 113.004 73.134C112.268 72.6971 111.418 72.4787 110.452 72.4787C109.509 72.4787 108.613 72.6971 107.762 73.134C106.934 73.5708 106.256 74.1916 105.727 74.9964C105.221 75.7781 104.968 76.7208 104.968 77.8245Z" fill="#202020"/>
<path d="M121.83 87.6883V63.546H124.589V84.4809L124.451 87.6883H121.83ZM130.418 88.1022C128.969 88.1022 127.693 87.7228 126.589 86.9641C125.509 86.2053 124.67 85.1476 124.072 83.7911C123.474 82.4115 123.175 80.8365 123.175 79.0661C123.175 77.2726 123.474 75.6976 124.072 74.3411C124.67 72.9845 125.509 71.9268 126.589 71.1681C127.693 70.4093 128.969 70.0299 130.418 70.0299C131.958 70.0299 133.315 70.4093 134.487 71.1681C135.66 71.9268 136.568 72.9845 137.212 74.3411C137.879 75.6976 138.212 77.2726 138.212 79.0661C138.212 80.8365 137.879 82.4115 137.212 83.7911C136.568 85.1476 135.66 86.2053 134.487 86.9641C133.315 87.7228 131.958 88.1022 130.418 88.1022ZM129.797 85.5845C130.878 85.5845 131.832 85.3086 132.659 84.7568C133.51 84.2049 134.177 83.4347 134.66 82.446C135.166 81.4573 135.419 80.3307 135.419 79.0661C135.419 77.8015 135.177 76.6748 134.694 75.6861C134.234 74.6975 133.579 73.9272 132.728 73.3754C131.878 72.8236 130.912 72.5476 129.831 72.5476C128.82 72.5476 127.911 72.8236 127.107 73.3754C126.325 73.9272 125.704 74.6975 125.244 75.6861C124.807 76.6748 124.589 77.8015 124.589 79.0661C124.589 80.3307 124.807 81.4573 125.244 82.446C125.704 83.4347 126.325 84.2049 127.107 84.7568C127.888 85.3086 128.785 85.5845 129.797 85.5845Z" fill="#202020"/>
<path d="M151.353 87.6883V63.546H165.7V66.2017H154.284V74.4445H164.355V77.1002H154.284V87.6883H151.353Z" fill="#202020"/>
<path d="M179.707 87.6883L179.569 84.8602V78.5832C179.569 77.2267 179.419 76.1115 179.12 75.2378C178.821 74.3411 178.35 73.6628 177.706 73.2029C177.062 72.7431 176.223 72.5132 175.188 72.5132C174.246 72.5132 173.43 72.7086 172.74 73.0995C172.073 73.4674 171.521 74.0652 171.084 74.8929L168.601 73.9272C169.038 73.1225 169.567 72.4327 170.188 71.8579C170.808 71.2601 171.533 70.8117 172.36 70.5128C173.188 70.1909 174.131 70.0299 175.188 70.0299C176.798 70.0299 178.12 70.3518 179.155 70.9956C180.212 71.6164 181.006 72.5476 181.534 73.7892C182.063 75.0079 182.316 76.5254 182.293 78.3418L182.259 87.6883H179.707ZM174.533 88.1022C172.51 88.1022 170.923 87.6423 169.774 86.7226C168.647 85.7799 168.084 84.4808 168.084 82.8254C168.084 81.0779 168.659 79.7444 169.808 78.8247C170.981 77.882 172.613 77.4106 174.706 77.4106H179.638V79.7214H175.326C173.717 79.7214 172.567 79.9858 171.878 80.5146C171.211 81.0434 170.877 81.8022 170.877 82.7909C170.877 83.6876 171.211 84.4004 171.878 84.9292C172.544 85.435 173.476 85.688 174.671 85.688C175.66 85.688 176.522 85.481 177.258 85.0672C177.994 84.6303 178.557 84.021 178.948 83.2392C179.362 82.4345 179.569 81.4918 179.569 80.4111H180.741C180.741 82.7564 180.212 84.6303 179.155 86.0329C178.097 87.4124 176.557 88.1022 174.533 88.1022Z" fill="#202020"/>
<path d="M194.356 88.1022C192.655 88.1022 191.149 87.7228 189.838 86.9641C188.528 86.1823 187.504 85.1131 186.769 83.7566C186.033 82.4 185.665 80.8365 185.665 79.0661C185.665 77.2956 186.021 75.7321 186.734 74.3756C187.47 73.019 188.493 71.9613 189.804 71.2026C191.114 70.4208 192.609 70.0299 194.287 70.0299C195.943 70.0299 197.426 70.4093 198.736 71.1681C200.047 71.9268 201.047 72.996 201.737 74.3756L199.219 75.5137C198.759 74.594 198.093 73.8812 197.219 73.3754C196.345 72.8466 195.345 72.5821 194.218 72.5821C193.092 72.5821 192.091 72.858 191.218 73.4099C190.367 73.9617 189.689 74.7319 189.183 75.7206C188.7 76.6863 188.459 77.8015 188.459 79.0661C188.459 80.3307 188.7 81.4573 189.183 82.446C189.689 83.4117 190.379 84.1704 191.252 84.7223C192.149 85.2741 193.161 85.55 194.287 85.55C195.414 85.55 196.414 85.2626 197.288 84.6878C198.185 84.113 198.863 83.3082 199.323 82.2735L201.84 83.4117C201.151 84.8832 200.15 86.0329 198.84 86.8606C197.529 87.6883 196.035 88.1022 194.356 88.1022Z" fill="#202020"/>
<path d="M211.808 88.1022C210.13 88.1022 208.831 87.6653 207.911 86.7916C206.991 85.9179 206.531 84.6878 206.531 83.1013V65.0635H209.291V82.8254C209.291 83.6991 209.52 84.3774 209.98 84.8602C210.463 85.3201 211.13 85.55 211.981 85.55C212.257 85.55 212.521 85.5155 212.774 85.4465C213.05 85.3546 213.406 85.1476 213.843 84.8257L214.912 87.0675C214.314 87.4584 213.774 87.7228 213.291 87.8608C212.808 88.0217 212.314 88.1022 211.808 88.1022ZM203.531 72.8925V70.4438H214.464V72.8925H203.531Z" fill="#202020"/>
<path d="M225.88 88.1022C224.201 88.1022 222.707 87.7228 221.396 86.9641C220.109 86.1823 219.097 85.1131 218.361 83.7566C217.625 82.4 217.258 80.8365 217.258 79.0661C217.258 77.2956 217.614 75.7321 218.327 74.3756C219.062 73.019 220.074 71.9613 221.362 71.2026C222.672 70.4208 224.155 70.0299 225.811 70.0299C227.512 70.0299 229.007 70.4208 230.294 71.2026C231.605 71.9613 232.617 73.019 233.329 74.3756C234.065 75.7321 234.433 77.2956 234.433 79.0661C234.433 80.8365 234.065 82.4 233.329 83.7566C232.617 85.1131 231.616 86.1823 230.329 86.9641C229.041 87.7228 227.558 88.1022 225.88 88.1022ZM225.88 85.55C227.029 85.55 228.03 85.2741 228.88 84.7223C229.731 84.1704 230.398 83.4117 230.881 82.446C231.387 81.4803 231.639 80.3537 231.639 79.0661C231.639 77.7785 231.387 76.6518 230.881 75.6861C230.398 74.7205 229.72 73.9617 228.846 73.4099C227.972 72.858 226.96 72.5821 225.811 72.5821C224.684 72.5821 223.684 72.858 222.81 73.4099C221.96 73.9617 221.281 74.7205 220.775 75.6861C220.293 76.6518 220.051 77.7785 220.051 79.0661C220.051 80.3307 220.293 81.4573 220.775 82.446C221.281 83.4117 221.971 84.1704 222.845 84.7223C223.741 85.2741 224.753 85.55 225.88 85.55Z" fill="#202020"/>
<path d="M239.782 78.3418C239.782 76.4794 240.138 74.9734 240.851 73.8237C241.563 72.6511 242.472 71.7889 243.575 71.2371C244.702 70.6622 245.886 70.3748 247.128 70.3748V72.9615C246.116 72.9615 245.139 73.134 244.196 73.4789C243.276 73.8008 242.518 74.3411 241.92 75.0998C241.322 75.8586 241.023 76.8933 241.023 78.2038L239.782 78.3418ZM238.264 87.6883V70.4438H241.023V87.6883H238.264Z" fill="#202020"/>
<path d="M251.47 95C251.033 95 250.527 94.908 249.952 94.7241C249.377 94.5631 248.768 94.3447 248.124 94.0688L249.159 91.758C249.688 91.988 250.147 92.1604 250.538 92.2754C250.952 92.3903 251.274 92.4478 251.504 92.4478C252.125 92.4478 252.631 92.2754 253.022 91.9305C253.435 91.6086 253.78 91.1372 254.056 90.5164L256.022 85.8259L262.403 70.4438H265.369L257.091 90.1026C256.654 91.1142 256.195 91.988 255.712 92.7237C255.252 93.4595 254.689 94.0228 254.022 94.4137C253.355 94.8046 252.504 95 251.47 95ZM255.263 87.6883L247.814 70.4438H250.745L257.16 85.7914L257.988 87.6883H255.263Z" fill="#202020"/>
</svg>
