<svg width="441" height="408" viewBox="0 0 441 408" fill="none" xmlns="http://www.w3.org/2000/svg">
<rect width="440" height="408" transform="translate(0.516357)" fill="#F0F0E5"/>
<path d="M136.086 122.4V120H178.722V256.32C178.722 268.96 176.167 277.44 171.057 281.76C165.947 285.92 158.202 288 147.823 288C137.603 288 128.501 286.48 120.516 283.44L121.235 281.52C128.9 284.56 136.804 286.08 144.948 286.08C150.378 286.08 153.971 283.76 155.727 279.12C157.643 274.48 158.602 266.96 158.602 256.56V122.4H136.086Z" fill="#161616"/>
<path d="M212.249 121.92C230.772 120.64 247.061 120 261.113 120C300.715 120 320.516 134 320.516 162C320.516 174.96 317.163 186.32 310.456 196.08C306.943 201.36 301.514 205.6 294.168 208.8C286.822 211.84 277.96 213.36 267.58 213.36H232.13V288H212.249V121.92ZM261.352 122.4C252.091 122.4 242.35 122.96 232.13 124.08V210.96H267.58C290.096 210 301.354 193.84 301.354 162.48C301.354 149.68 298.001 139.84 291.294 132.96C284.587 125.92 274.606 122.4 261.352 122.4Z" fill="#161616"/>
</svg>
