<svg width="52" height="79" viewBox="0 0 52 79" fill="none" xmlns="http://www.w3.org/2000/svg">
<path d="M25.005 0.0363809C25.2812 0.00497606 25.5563 -0.00363334 25.8346 0.00129397C28.263 0.0439612 30.4435 0.901313 32.1366 2.67347C33.1627 3.74686 33.9056 5.03917 34.2072 6.49668C34.8369 9.54549 34.5018 15.1568 34.5018 18.4581C34.5018 21.316 34.5244 24.1785 34.5364 27.0413C34.5612 32.9177 39.5678 38.9603 45.2953 37.6453V37.6453C46.2558 37.4249 47.0128 36.937 47.532 36.0907C47.975 35.3695 48.171 34.5378 48.2506 33.7034C48.4357 31.7595 48.4444 13.1142 48.0946 11.8141C47.9436 11.2537 47.5949 10.8009 47.0913 10.5112C46.9422 10.4271 46.7863 10.3584 46.6235 10.305C46.4607 10.2516 46.2943 10.2146 46.1242 10.1939C45.9542 10.1733 45.7838 10.1694 45.6131 10.1824C45.4424 10.1952 45.2745 10.2247 45.1095 10.2706C44.3396 10.4865 43.8008 11.0281 43.5545 11.7858C43.1321 13.0843 43.3644 14.8165 43.3601 16.1886C43.3541 18.0691 43.6584 30.6345 43.0477 31.5585C42.8148 31.9111 42.0546 32.3397 41.6269 32.3774C41.2776 32.4081 40.9847 32.3024 40.7351 32.0574C40.2954 31.6255 40.127 30.8156 40.0561 30.2296C39.8054 28.1695 40.023 25.8548 40.0241 23.7635C40.0263 20.258 39.9169 16.736 40.0014 13.2325C40.0453 11.406 40.4286 9.75254 41.8093 8.45006C41.9505 8.31812 42.0978 8.19349 42.2512 8.07618C42.4046 7.95886 42.5634 7.84941 42.7276 7.74783C42.8923 7.64625 43.0612 7.55307 43.2345 7.46828C43.4081 7.38345 43.5855 7.30742 43.7667 7.24021C43.9476 7.17296 44.1315 7.11485 44.3185 7.06586C44.5055 7.01688 44.6942 6.97726 44.8848 6.94701C45.0758 6.91676 45.2677 6.89602 45.4604 6.8848C45.6532 6.87357 45.8461 6.87191 46.0392 6.87981C46.232 6.88714 46.424 6.90393 46.6154 6.93017C46.8063 6.95645 46.9956 6.99204 47.1833 7.03695C47.371 7.08189 47.5561 7.13594 47.7383 7.19912C47.9206 7.26229 48.0995 7.33428 48.2749 7.4151C48.45 7.49589 48.6207 7.58511 48.7872 7.68275C48.9536 7.78039 49.1147 7.88598 49.2707 7.9995C49.4266 8.11307 49.5768 8.23401 49.7212 8.36234C49.8652 8.49067 50.0026 8.62578 50.1332 8.76768C50.666 9.35284 51.11 10.0062 51.2833 10.7884C51.9607 13.851 51.6168 19.8455 51.6152 23.2916C51.613 26.8692 51.7592 30.5092 51.5697 34.077C51.4604 36.14 50.7527 37.857 49.1911 39.2458C46.6099 41.5405 42.9978 41.181 39.7918 41.2043C39.0262 41.2099 38.2577 41.224 37.489 41.2304C35.8577 41.2441 34.5382 42.584 34.5391 44.2154V44.2154C34.5391 45.0335 34.5012 46.1099 33.8655 46.711C33.5813 46.979 33.1817 47.0889 32.7983 47.0786C32.4101 47.0678 32.0267 46.9313 31.7582 46.6433V46.6433C29.7174 44.4545 28.6186 41.0095 25.6274 41.1033C23.9588 41.1556 22.4198 41.4012 21.6317 42.1594C21.1119 42.6598 20.8504 43.2537 20.7053 43.9522C20.3891 45.4754 20.5358 47.1869 20.5407 48.7415V48.7415C20.5567 53.5508 24.6249 56.7086 29.2908 57.875C30.2316 58.1102 31.0841 58.4656 31.776 58.9957C33.2916 60.156 34.1904 61.9141 34.4227 63.7919C34.7855 66.7207 34.498 70.1335 34.4882 73.1143C34.4844 74.3586 34.6545 75.7491 34.511 76.9749C34.453 77.4677 34.2987 77.994 33.9809 78.3838C33.7053 78.7228 33.3246 78.9415 32.8844 78.9686C32.4626 78.9946 32.0587 78.8235 31.7549 78.536C31.4549 78.2522 31.3423 77.9171 31.2708 77.5169C31.0223 76.1313 31.1398 74.6206 31.1463 73.215C31.1582 70.6198 31.2167 68.017 31.1793 65.4223C31.1604 64.1011 30.9568 62.7437 29.9454 61.7874C28.3886 60.3158 24.4777 60.8491 22.4277 60.8751V60.8751C21.3996 60.9331 20.5479 61.7152 20.5716 62.7446C20.6737 67.1938 20.7428 76.9725 20.3631 77.9848C20.327 78.0807 20.2797 78.1661 20.2233 78.2429C19.6532 79.0197 18.3119 79.012 17.6135 78.3481V78.3481C17.3198 78.0688 17.186 75.8354 17.1356 73.0415C17.015 66.3468 11.4878 62.4536 5.10907 60.4175V60.4175C4.05723 60.0818 3.12477 59.4711 2.32974 58.7098C0.49998 56.9581 0.163027 54.9553 0.110559 52.516C0.0222467 48.4074 0.0922589 44.2814 0.0912302 40.1717C0.0904721 37.1114 -0.266892 33.4966 0.438146 30.509C0.636592 29.6681 1.08314 28.967 1.68394 28.3524C1.81711 28.2154 1.95668 28.0852 2.10265 27.962C2.24863 27.8387 2.40031 27.7229 2.5577 27.6146C2.71505 27.5062 2.87734 27.4059 3.04458 27.3135C3.21186 27.2211 3.38325 27.1372 3.55875 27.0617C3.73426 26.9862 3.91305 26.9195 4.09513 26.8617C4.2772 26.8038 4.46168 26.7549 4.64856 26.7152C4.83543 26.6755 5.02381 26.645 5.21368 26.6238C5.40359 26.6026 5.59406 26.5908 5.78509 26.5883C5.98131 26.5837 6.17727 26.5888 6.37295 26.6037C6.56867 26.6186 6.76315 26.6433 6.95638 26.6777C7.14964 26.712 7.34069 26.756 7.52952 26.8094C7.71838 26.8629 7.9041 26.9256 8.08668 26.9977C8.26923 27.0697 8.44774 27.1507 8.62224 27.2406C8.79674 27.3305 8.9663 27.4288 9.13094 27.5357C9.29558 27.6425 9.45449 27.7573 9.60765 27.8801C9.76081 28.0028 9.90747 28.1328 10.0476 28.2702C11.8172 30.0319 11.7527 32.419 11.7577 34.7533L11.7574 45.1965C11.7562 46.9173 11.9265 48.8108 11.6662 50.5039C11.6081 50.8824 11.4894 51.2316 11.2065 51.5024C10.8609 51.8327 10.3701 51.9707 9.89857 51.9491C9.20253 51.9166 8.7921 51.3973 8.59154 50.773C8.12924 49.3338 8.39033 47.3434 8.40863 45.8414C8.42812 42.7626 8.42932 39.6837 8.41221 36.6046C8.41015 35.1659 8.56625 33.5756 8.36429 32.1571C8.28361 31.5903 8.09729 31.0366 7.7024 30.6097C7.26848 30.1407 6.60778 29.8723 5.97341 29.8576C5.81021 29.8543 5.64831 29.8674 5.48771 29.8968C5.32715 29.9262 5.17114 29.9714 5.01968 30.0323C4.86821 30.0931 4.72434 30.1685 4.58807 30.2584C4.45184 30.3483 4.32595 30.451 4.2104 30.5663C3.21157 31.5734 3.42084 33.5681 3.4164 34.9006L3.4091 47.7538C3.41061 49.8433 3.16853 52.3351 3.57354 54.3802C3.73105 55.1756 4.09323 55.8259 4.6707 56.3934C5.22706 56.9397 5.93155 57.2332 6.68635 57.3956C8.10847 57.7022 10.8162 57.6867 13.3002 57.6321C15.4095 57.5857 17.191 55.7152 17.1901 53.6054V53.6054L17.1831 46.3937C17.1739 43.9712 17.4462 41.5958 19.2477 39.8003C20.2189 38.8321 21.5696 38.3066 23.0676 38.0322C27.385 37.2412 31.1489 34.081 31.1506 29.6917V29.6917L31.1588 15.1284C31.1598 12.6595 31.443 9.7598 30.9871 7.33979C30.7478 6.06762 29.8685 4.88707 28.8029 4.17575C28.6541 4.07713 28.5007 3.98617 28.3426 3.90286C28.1849 3.81954 28.0233 3.7443 27.858 3.67712C27.6927 3.60991 27.5243 3.55108 27.3528 3.50066C27.1817 3.45026 27.0085 3.4085 26.833 3.37536C26.6576 3.34222 26.4809 3.31789 26.3029 3.30237C26.125 3.28685 25.9468 3.28021 25.7685 3.28245C25.5898 3.28472 25.4119 3.29584 25.2346 3.3158C25.0574 3.3358 24.8814 3.36457 24.7067 3.40211C23.6319 3.63234 22.6519 4.16785 21.9317 5.00619C19.6088 7.71085 21.4731 11.0377 19.9175 13.2896C19.7426 13.5431 19.5325 13.6934 19.2282 13.7431C18.7631 13.8189 18.1404 13.4064 17.7933 13.1404C17.4598 12.885 17.2903 12.5008 17.2389 12.0904C16.8756 9.16858 17.1766 5.66331 19.0257 3.27124C20.5234 1.33351 22.6297 0.343715 25.005 0.0363809Z" fill="#FFFDFA"/>
<path d="M17.5154 25.1133C17.9027 24.5982 18.6201 24.3894 19.2542 24.5046V24.5046C19.6077 24.5687 20.0036 24.7543 20.2017 25.0646C20.8314 26.0495 20.702 32.1714 20.4351 33.4709C20.3903 33.6894 20.3321 33.8649 20.2535 34.0158C19.9395 34.6194 19.1715 34.8846 18.507 34.7385V34.7385C18.1696 34.6643 17.7289 34.4743 17.5475 34.1618C17.0049 33.2284 17.0163 26.7331 17.2962 25.5883C17.3437 25.3946 17.4185 25.2421 17.5154 25.1133Z" fill="#FFFDFA"/>
<path d="M31.4927 52.0453C31.9177 51.417 32.7871 51.1427 33.5017 51.3971V51.3971C33.9121 51.5433 34.2267 51.8985 34.4 52.2905C34.6095 52.7643 34.5862 53.2792 34.394 53.7535C34.227 54.1654 34.0322 54.4072 33.7434 54.5961C33.4126 54.8125 33.0064 54.8929 32.618 54.8186V54.8186C32.1302 54.726 31.7143 54.4601 31.4425 54.0416C31.1756 53.6312 31.1306 53.087 31.2449 52.6181C31.2995 52.3931 31.3835 52.2067 31.4927 52.0453Z" fill="#FFFDFA"/>
<path d="M18.3218 17.549C18.394 17.5243 18.4674 17.5045 18.5422 17.4895C18.6169 17.4746 18.6921 17.4646 18.768 17.4596C18.8441 17.4546 18.9201 17.4546 18.9959 17.4596C19.0721 17.4646 19.1475 17.4746 19.2222 17.4896C19.297 17.5045 19.3702 17.5243 19.4421 17.549C19.5143 17.5737 19.5845 17.603 19.6527 17.6369C19.7209 17.6708 19.7866 17.709 19.8498 17.7516C19.913 17.7942 19.9731 17.8408 20.0301 17.8913C20.0871 17.9419 20.1406 17.996 20.1904 18.0536C20.2402 18.1111 20.2862 18.1718 20.3284 18.2354C20.3703 18.2991 20.4077 18.3653 20.4405 18.4339C20.4737 18.5025 20.5023 18.573 20.5261 18.6454C20.5499 18.7178 20.5689 18.7914 20.5829 18.8663C20.5974 18.9412 20.6066 19.0166 20.6105 19.0927C20.6149 19.1688 20.614 19.2449 20.6078 19.3209C20.6021 19.3968 20.5912 19.4721 20.5754 19.5466C20.5595 19.6212 20.5387 19.6944 20.5131 19.7661C20.4878 19.8379 20.4579 19.9078 20.4232 19.9756C20.3882 20.0434 20.349 20.1087 20.3057 20.1714C20.2624 20.234 20.2151 20.2936 20.1638 20.35C20.1126 20.4064 20.0579 20.4592 19.9998 20.5084C19.9417 20.5576 19.8805 20.6028 19.8162 20.644C19.7523 20.6851 19.6857 20.7218 19.6164 20.7542C19.5475 20.7865 19.4767 20.8141 19.4042 20.8371C19.3504 20.8541 19.2961 20.8684 19.2412 20.8801C19.186 20.8918 19.1304 20.9007 19.0744 20.907C19.0188 20.9133 18.9629 20.9168 18.9066 20.9176C18.8503 20.9184 18.7939 20.9164 18.7376 20.9117C18.6817 20.9071 18.6261 20.8997 18.5709 20.8895C18.5153 20.8794 18.4604 20.8666 18.4063 20.8512C18.3525 20.8357 18.2994 20.8176 18.2471 20.797C18.1944 20.7763 18.1431 20.7532 18.0933 20.7276C18.0431 20.7019 17.9944 20.6739 17.9471 20.6435C17.8998 20.6131 17.854 20.5805 17.8096 20.5456C17.7655 20.5108 17.7231 20.4738 17.6823 20.4348C17.6419 20.3958 17.6034 20.355 17.567 20.3122C17.5302 20.2694 17.4957 20.225 17.4636 20.1789C17.4314 20.1328 17.4015 20.0852 17.3737 20.0362C17.3463 19.9872 17.3212 19.9369 17.2984 19.8854C17.2757 19.8339 17.2555 19.7814 17.2378 19.728C17.2201 19.6745 17.2051 19.6203 17.1928 19.5654C17.1806 19.5105 17.171 19.4552 17.1641 19.3993C17.1573 19.3435 17.1531 19.2874 17.1517 19.2311C17.1502 19.1749 17.1515 19.1187 17.1555 19.0626C17.1594 19.0064 17.1661 18.9506 17.1755 18.8952C17.1853 18.8397 17.1975 18.7848 17.2123 18.7306C17.2271 18.6763 17.2445 18.6228 17.2643 18.5703C17.2845 18.5177 17.3071 18.4662 17.332 18.4158C17.3573 18.3654 17.3847 18.3164 17.4143 18.2687C17.4443 18.221 17.4764 18.1748 17.5107 18.1303C17.545 18.0857 17.5814 18.0429 17.6201 18.0019C17.6587 17.9608 17.6991 17.9218 17.7413 17.8847C17.7836 17.8476 17.8276 17.8127 17.8735 17.7799C17.9193 17.7471 17.9666 17.7166 18.0153 17.6885C18.0641 17.6603 18.114 17.6346 18.1653 17.6112C18.2162 17.588 18.2684 17.5672 18.3218 17.549Z" fill="#FFFDFA"/>
</svg>
